<mxfile host="app.diagrams.net" modified="2021-12-09T08:17:43.446Z" agent="5.0 (Windows NT 10.0; Win64; x64) AppleWebKit/537.36 (KHTML, like Gecko) Chrome/96.0.4664.55 Safari/537.36 Edg/96.0.1054.43" etag="LcCznJR2LCi48ivEuoNB" version="15.9.1" type="github">
  <diagram id="EBI2LygRZCxqeJW2eF5e" name="Page-1">
    <mxGraphModel dx="1422" dy="794" grid="1" gridSize="10" guides="1" tooltips="1" connect="1" arrows="1" fold="1" page="1" pageScale="1" pageWidth="827" pageHeight="1169" math="0" shadow="0">
      <root>
        <mxCell id="0" />
        <mxCell id="1" parent="0" />
        <mxCell id="jZ0jSoJBSHUuLXD9sUMY-5" value="Reseller" style="text;html=1;resizable=0;autosize=1;align=center;verticalAlign=middle;points=[];fillColor=none;strokeColor=none;rounded=0;" parent="1" vertex="1">
          <mxGeometry x="20" y="20" width="60" height="20" as="geometry" />
        </mxCell>
        <mxCell id="jZ0jSoJBSHUuLXD9sUMY-8" value="2) 주문" style="text;html=1;resizable=0;autosize=1;align=center;verticalAlign=middle;points=[];fillColor=none;strokeColor=none;rounded=0;" parent="1" vertex="1">
          <mxGeometry x="35" y="330" width="50" height="20" as="geometry" />
        </mxCell>
        <mxCell id="jZ0jSoJBSHUuLXD9sUMY-17" value="1) 가입" style="text;html=1;resizable=0;autosize=1;align=center;verticalAlign=middle;points=[];fillColor=none;strokeColor=none;rounded=0;" parent="1" vertex="1">
          <mxGeometry x="35" y="60" width="50" height="20" as="geometry" />
        </mxCell>
        <mxCell id="jZ0jSoJBSHUuLXD9sUMY-18" value="3) 빌링" style="text;html=1;resizable=0;autosize=1;align=center;verticalAlign=middle;points=[];fillColor=none;strokeColor=none;rounded=0;" parent="1" vertex="1">
          <mxGeometry x="70" y="1040" width="50" height="20" as="geometry" />
        </mxCell>
        <mxCell id="jZ0jSoJBSHUuLXD9sUMY-29" style="edgeStyle=orthogonalEdgeStyle;rounded=0;orthogonalLoop=1;jettySize=auto;html=1;entryX=0;entryY=0.5;entryDx=0;entryDy=0;" parent="1" source="jZ0jSoJBSHUuLXD9sUMY-20" target="jZ0jSoJBSHUuLXD9sUMY-21" edge="1">
          <mxGeometry relative="1" as="geometry" />
        </mxCell>
        <mxCell id="jZ0jSoJBSHUuLXD9sUMY-20" value="MPN 가입" style="strokeWidth=2;html=1;shape=mxgraph.flowchart.terminator;whiteSpace=wrap;" parent="1" vertex="1">
          <mxGeometry x="30" y="90" width="75" height="40" as="geometry" />
        </mxCell>
        <mxCell id="jZ0jSoJBSHUuLXD9sUMY-31" style="edgeStyle=orthogonalEdgeStyle;rounded=0;orthogonalLoop=1;jettySize=auto;html=1;entryX=0;entryY=0.5;entryDx=0;entryDy=0;" parent="1" source="jZ0jSoJBSHUuLXD9sUMY-21" edge="1">
          <mxGeometry relative="1" as="geometry">
            <mxPoint x="353.5" y="110" as="targetPoint" />
          </mxGeometry>
        </mxCell>
        <mxCell id="jZ0jSoJBSHUuLXD9sUMY-21" value="파트너포탈 가입" style="whiteSpace=wrap;html=1;strokeWidth=2;" parent="1" vertex="1">
          <mxGeometry x="170" y="95" width="120" height="30" as="geometry" />
        </mxCell>
        <mxCell id="jZ0jSoJBSHUuLXD9sUMY-22" value="*첫 계정은 관리자 권한" style="text;html=1;resizable=0;autosize=1;align=center;verticalAlign=middle;points=[];fillColor=none;strokeColor=none;rounded=0;" parent="1" vertex="1">
          <mxGeometry x="150" y="75" width="140" height="20" as="geometry" />
        </mxCell>
        <mxCell id="jZ0jSoJBSHUuLXD9sUMY-32" style="edgeStyle=orthogonalEdgeStyle;rounded=0;orthogonalLoop=1;jettySize=auto;html=1;entryX=0;entryY=0.5;entryDx=0;entryDy=0;" parent="1" target="jZ0jSoJBSHUuLXD9sUMY-25" edge="1">
          <mxGeometry relative="1" as="geometry">
            <mxPoint x="474" y="110" as="sourcePoint" />
          </mxGeometry>
        </mxCell>
        <mxCell id="jZ0jSoJBSHUuLXD9sUMY-33" style="edgeStyle=orthogonalEdgeStyle;rounded=0;orthogonalLoop=1;jettySize=auto;html=1;entryX=0;entryY=0.5;entryDx=0;entryDy=0;" parent="1" source="jZ0jSoJBSHUuLXD9sUMY-25" target="jZ0jSoJBSHUuLXD9sUMY-26" edge="1">
          <mxGeometry relative="1" as="geometry" />
        </mxCell>
        <mxCell id="jZ0jSoJBSHUuLXD9sUMY-25" value="Cloocus-리셀러 간&lt;br&gt;관계맺기" style="whiteSpace=wrap;html=1;strokeWidth=2;" parent="1" vertex="1">
          <mxGeometry x="530.5" y="95" width="120" height="30" as="geometry" />
        </mxCell>
        <mxCell id="jZ0jSoJBSHUuLXD9sUMY-34" style="edgeStyle=orthogonalEdgeStyle;rounded=0;orthogonalLoop=1;jettySize=auto;html=1;entryX=0;entryY=0.5;entryDx=0;entryDy=0;" parent="1" source="jZ0jSoJBSHUuLXD9sUMY-26" edge="1">
          <mxGeometry relative="1" as="geometry">
            <mxPoint x="890.5" y="110" as="targetPoint" />
          </mxGeometry>
        </mxCell>
        <mxCell id="jZ0jSoJBSHUuLXD9sUMY-26" value="리셀러-고객 간&lt;br&gt;관계 맺기" style="whiteSpace=wrap;html=1;strokeWidth=2;" parent="1" vertex="1">
          <mxGeometry x="707.5" y="95" width="120" height="30" as="geometry" />
        </mxCell>
        <mxCell id="jZ0jSoJBSHUuLXD9sUMY-27" value="CSP 간접 리셀러&lt;br&gt;등록" style="whiteSpace=wrap;html=1;strokeWidth=2;" parent="1" vertex="1">
          <mxGeometry x="354" y="95" width="120" height="30" as="geometry" />
        </mxCell>
        <mxCell id="jZ0jSoJBSHUuLXD9sUMY-39" style="edgeStyle=orthogonalEdgeStyle;rounded=0;orthogonalLoop=1;jettySize=auto;html=1;entryX=0;entryY=0.5;entryDx=0;entryDy=0;" parent="1" source="jZ0jSoJBSHUuLXD9sUMY-35" target="jZ0jSoJBSHUuLXD9sUMY-36" edge="1">
          <mxGeometry relative="1" as="geometry" />
        </mxCell>
        <mxCell id="jZ0jSoJBSHUuLXD9sUMY-35" value="사용자 추가" style="whiteSpace=wrap;html=1;strokeWidth=2;" parent="1" vertex="1">
          <mxGeometry x="890" y="96" width="120" height="30" as="geometry" />
        </mxCell>
        <mxCell id="jZ0jSoJBSHUuLXD9sUMY-36" value="고객사 추가" style="whiteSpace=wrap;html=1;strokeWidth=2;" parent="1" vertex="1">
          <mxGeometry x="1070" y="96" width="120" height="30" as="geometry" />
        </mxCell>
        <mxCell id="jZ0jSoJBSHUuLXD9sUMY-41" value="*End-User의 이메일 동의 필요" style="text;html=1;resizable=0;autosize=1;align=center;verticalAlign=middle;points=[];fillColor=none;strokeColor=none;rounded=0;" parent="1" vertex="1">
          <mxGeometry x="677.5" y="70" width="180" height="20" as="geometry" />
        </mxCell>
        <mxCell id="Zp6rRj_maZluac3LyFAB-7" value="회사정보&lt;br&gt;: 회사명, 대표자명, 사업자번호, &lt;br&gt;&amp;nbsp;회사전화, 회사이메일(선택)&lt;br style=&quot;font-size: 10px&quot;&gt;&amp;nbsp;MPN ID, 국가, 도시, 주, Zipcode, &lt;br&gt;도로명(빌링 주소인지 체크)&lt;br style=&quot;font-size: 10px&quot;&gt;&lt;div style=&quot;font-size: 10px&quot;&gt;&lt;span style=&quot;font-size: 10px&quot;&gt;&lt;br&gt;&lt;/span&gt;&lt;/div&gt;&lt;div style=&quot;font-size: 10px&quot;&gt;&lt;span style=&quot;font-size: 10px&quot;&gt;가입자정보&lt;/span&gt;&lt;/div&gt;&lt;div style=&quot;font-size: 10px&quot;&gt;&lt;span style=&quot;font-size: 10px&quot;&gt;: 이름, ID(이메일), PW, 전화번호, 직책&lt;/span&gt;&lt;/div&gt;" style="text;html=1;resizable=0;autosize=1;align=left;verticalAlign=middle;points=[];fillColor=none;strokeColor=none;rounded=0;fontSize=10;" parent="1" vertex="1">
          <mxGeometry x="170" y="170" width="190" height="100" as="geometry" />
        </mxCell>
        <mxCell id="Zp6rRj_maZluac3LyFAB-8" value="" style="shape=datastore;whiteSpace=wrap;html=1;" parent="1" vertex="1">
          <mxGeometry x="170" y="130" width="35" height="30" as="geometry" />
        </mxCell>
        <mxCell id="Zp6rRj_maZluac3LyFAB-9" value="" style="shape=datastore;whiteSpace=wrap;html=1;" parent="1" vertex="1">
          <mxGeometry x="890" y="131" width="35" height="30" as="geometry" />
        </mxCell>
        <mxCell id="Zp6rRj_maZluac3LyFAB-10" value="&lt;span&gt;사용자정보&lt;/span&gt;&lt;br&gt;&lt;div style=&quot;font-size: 10px&quot;&gt;&lt;span style=&quot;font-size: 10px&quot;&gt;: 이름, ID(이메일), 전화번호, 직책&lt;/span&gt;&lt;/div&gt;&lt;div style=&quot;font-size: 10px&quot;&gt;&lt;span&gt;(관리자뷰)활성화토글, 권한부여&amp;nbsp;&lt;/span&gt;&lt;/div&gt;" style="text;html=1;resizable=0;autosize=1;align=left;verticalAlign=middle;points=[];fillColor=none;strokeColor=none;rounded=0;fontSize=10;" parent="1" vertex="1">
          <mxGeometry x="890" y="171" width="160" height="40" as="geometry" />
        </mxCell>
        <mxCell id="Zp6rRj_maZluac3LyFAB-11" value="" style="shape=datastore;whiteSpace=wrap;html=1;" parent="1" vertex="1">
          <mxGeometry x="1070" y="131" width="35" height="30" as="geometry" />
        </mxCell>
        <mxCell id="Zp6rRj_maZluac3LyFAB-12" value="&lt;span&gt;고객사정보&lt;/span&gt;&lt;br&gt;&lt;div style=&quot;font-size: 10px&quot;&gt;&lt;span style=&quot;font-size: 10px&quot;&gt;: 회사명, 대표자명, 사업자번호,&lt;br&gt;&lt;/span&gt;&lt;/div&gt;&lt;div style=&quot;font-size: 10px&quot;&gt;&lt;span style=&quot;font-size: 10px&quot;&gt;&amp;nbsp; 담당자명, 담당자연락처, 담당자이메일,&lt;/span&gt;&lt;/div&gt;&lt;div style=&quot;font-size: 10px&quot;&gt;&lt;span style=&quot;font-size: 10px&quot;&gt;&amp;nbsp; 담당자직책,&amp;nbsp;&lt;/span&gt;&lt;span&gt;국가, 도시, 주, Zipcode, 도로명(빌링주소인지 체크)&lt;/span&gt;&lt;/div&gt;&lt;div style=&quot;font-size: 10px&quot;&gt;&lt;span style=&quot;font-size: 10px&quot;&gt;&amp;nbsp; 도메인 설정, 특별자격, MPA계약동의&lt;/span&gt;&lt;/div&gt;" style="text;html=1;resizable=0;autosize=1;align=left;verticalAlign=middle;points=[];fillColor=none;strokeColor=none;rounded=0;fontSize=10;" parent="1" vertex="1">
          <mxGeometry x="1070" y="171" width="300" height="70" as="geometry" />
        </mxCell>
        <mxCell id="Zp6rRj_maZluac3LyFAB-14" value="*Reseller에게 이메일 발송" style="text;html=1;resizable=0;autosize=1;align=center;verticalAlign=middle;points=[];fillColor=none;strokeColor=none;rounded=0;" parent="1" vertex="1">
          <mxGeometry x="515.5" y="70" width="150" height="20" as="geometry" />
        </mxCell>
        <mxCell id="Zp6rRj_maZluac3LyFAB-15" value="*MS 글로벌 전역관리자 권한" style="text;html=1;resizable=0;autosize=1;align=center;verticalAlign=middle;points=[];fillColor=none;strokeColor=none;rounded=0;" parent="1" vertex="1">
          <mxGeometry x="329" y="70" width="170" height="20" as="geometry" />
        </mxCell>
        <mxCell id="MoLYa7cNz7H3YmrfVmoX-3" style="edgeStyle=orthogonalEdgeStyle;rounded=0;orthogonalLoop=1;jettySize=auto;html=1;entryX=0;entryY=0.5;entryDx=0;entryDy=0;" edge="1" parent="1" source="MoLYa7cNz7H3YmrfVmoX-1" target="MoLYa7cNz7H3YmrfVmoX-2">
          <mxGeometry relative="1" as="geometry" />
        </mxCell>
        <mxCell id="MoLYa7cNz7H3YmrfVmoX-1" value="상품검색" style="strokeWidth=2;html=1;shape=mxgraph.flowchart.terminator;whiteSpace=wrap;" vertex="1" parent="1">
          <mxGeometry x="30" y="370" width="75" height="40" as="geometry" />
        </mxCell>
        <mxCell id="MoLYa7cNz7H3YmrfVmoX-5" value="" style="edgeStyle=orthogonalEdgeStyle;rounded=0;orthogonalLoop=1;jettySize=auto;html=1;" edge="1" parent="1" source="MoLYa7cNz7H3YmrfVmoX-2" target="MoLYa7cNz7H3YmrfVmoX-4">
          <mxGeometry relative="1" as="geometry" />
        </mxCell>
        <mxCell id="MoLYa7cNz7H3YmrfVmoX-2" value="신청고객사정보 기입" style="whiteSpace=wrap;html=1;strokeWidth=2;" vertex="1" parent="1">
          <mxGeometry x="170" y="375" width="120" height="30" as="geometry" />
        </mxCell>
        <mxCell id="MoLYa7cNz7H3YmrfVmoX-11" style="edgeStyle=orthogonalEdgeStyle;rounded=0;orthogonalLoop=1;jettySize=auto;html=1;entryX=0;entryY=0.5;entryDx=0;entryDy=0;" edge="1" parent="1" source="MoLYa7cNz7H3YmrfVmoX-4" target="MoLYa7cNz7H3YmrfVmoX-6">
          <mxGeometry relative="1" as="geometry" />
        </mxCell>
        <mxCell id="MoLYa7cNz7H3YmrfVmoX-12" style="edgeStyle=orthogonalEdgeStyle;rounded=0;orthogonalLoop=1;jettySize=auto;html=1;entryX=0;entryY=0.5;entryDx=0;entryDy=0;" edge="1" parent="1" source="MoLYa7cNz7H3YmrfVmoX-4" target="MoLYa7cNz7H3YmrfVmoX-7">
          <mxGeometry relative="1" as="geometry" />
        </mxCell>
        <mxCell id="MoLYa7cNz7H3YmrfVmoX-13" style="edgeStyle=orthogonalEdgeStyle;rounded=0;orthogonalLoop=1;jettySize=auto;html=1;entryX=0;entryY=0.5;entryDx=0;entryDy=0;" edge="1" parent="1" source="MoLYa7cNz7H3YmrfVmoX-4" target="MoLYa7cNz7H3YmrfVmoX-8">
          <mxGeometry relative="1" as="geometry" />
        </mxCell>
        <mxCell id="MoLYa7cNz7H3YmrfVmoX-14" style="edgeStyle=orthogonalEdgeStyle;rounded=0;orthogonalLoop=1;jettySize=auto;html=1;entryX=0;entryY=0.5;entryDx=0;entryDy=0;" edge="1" parent="1" source="MoLYa7cNz7H3YmrfVmoX-4" target="MoLYa7cNz7H3YmrfVmoX-9">
          <mxGeometry relative="1" as="geometry" />
        </mxCell>
        <mxCell id="MoLYa7cNz7H3YmrfVmoX-4" value="구독추가" style="whiteSpace=wrap;html=1;strokeWidth=2;" vertex="1" parent="1">
          <mxGeometry x="340" y="375" width="120" height="30" as="geometry" />
        </mxCell>
        <mxCell id="MoLYa7cNz7H3YmrfVmoX-23" style="edgeStyle=orthogonalEdgeStyle;rounded=0;orthogonalLoop=1;jettySize=auto;html=1;entryX=0;entryY=0.5;entryDx=0;entryDy=0;" edge="1" parent="1" source="MoLYa7cNz7H3YmrfVmoX-6" target="MoLYa7cNz7H3YmrfVmoX-20">
          <mxGeometry relative="1" as="geometry" />
        </mxCell>
        <mxCell id="MoLYa7cNz7H3YmrfVmoX-6" value="Lisense" style="whiteSpace=wrap;html=1;strokeWidth=2;" vertex="1" parent="1">
          <mxGeometry x="530.5" y="320" width="120" height="30" as="geometry" />
        </mxCell>
        <mxCell id="MoLYa7cNz7H3YmrfVmoX-34" style="edgeStyle=orthogonalEdgeStyle;rounded=0;orthogonalLoop=1;jettySize=auto;html=1;entryX=0;entryY=0.5;entryDx=0;entryDy=0;" edge="1" parent="1" source="MoLYa7cNz7H3YmrfVmoX-7" target="MoLYa7cNz7H3YmrfVmoX-33">
          <mxGeometry relative="1" as="geometry" />
        </mxCell>
        <mxCell id="MoLYa7cNz7H3YmrfVmoX-7" value="Usage" style="whiteSpace=wrap;html=1;strokeWidth=2;" vertex="1" parent="1">
          <mxGeometry x="530.5" y="585" width="120" height="30" as="geometry" />
        </mxCell>
        <mxCell id="MoLYa7cNz7H3YmrfVmoX-50" value="" style="edgeStyle=orthogonalEdgeStyle;rounded=0;orthogonalLoop=1;jettySize=auto;html=1;" edge="1" parent="1" source="MoLYa7cNz7H3YmrfVmoX-8" target="MoLYa7cNz7H3YmrfVmoX-48">
          <mxGeometry relative="1" as="geometry" />
        </mxCell>
        <mxCell id="MoLYa7cNz7H3YmrfVmoX-8" value="Azure RI" style="whiteSpace=wrap;html=1;strokeWidth=2;" vertex="1" parent="1">
          <mxGeometry x="530.5" y="880" width="120" height="30" as="geometry" />
        </mxCell>
        <mxCell id="MoLYa7cNz7H3YmrfVmoX-9" value="S/W" style="whiteSpace=wrap;html=1;strokeWidth=2;" vertex="1" parent="1">
          <mxGeometry x="530.5" y="950" width="120" height="30" as="geometry" />
        </mxCell>
        <mxCell id="MoLYa7cNz7H3YmrfVmoX-15" value="&amp;nbsp;수량 / 청구주기 변경" style="whiteSpace=wrap;html=1;strokeWidth=2;" vertex="1" parent="1">
          <mxGeometry x="700" y="360" width="120" height="30" as="geometry" />
        </mxCell>
        <mxCell id="MoLYa7cNz7H3YmrfVmoX-19" value="구독중지" style="whiteSpace=wrap;html=1;strokeWidth=2;" vertex="1" parent="1">
          <mxGeometry x="700" y="400" width="120" height="30" as="geometry" />
        </mxCell>
        <mxCell id="MoLYa7cNz7H3YmrfVmoX-20" value="사용" style="whiteSpace=wrap;html=1;strokeWidth=2;" vertex="1" parent="1">
          <mxGeometry x="700" y="320" width="120" height="30" as="geometry" />
        </mxCell>
        <mxCell id="MoLYa7cNz7H3YmrfVmoX-28" value="구독중지" style="whiteSpace=wrap;html=1;strokeWidth=2;" vertex="1" parent="1">
          <mxGeometry x="1027.5" y="620" width="120" height="30" as="geometry" />
        </mxCell>
        <mxCell id="MoLYa7cNz7H3YmrfVmoX-29" value="청구 전환(Plan)" style="whiteSpace=wrap;html=1;strokeWidth=2;" vertex="1" parent="1">
          <mxGeometry x="857.5" y="725" width="120" height="30" as="geometry" />
        </mxCell>
        <mxCell id="MoLYa7cNz7H3YmrfVmoX-37" style="edgeStyle=orthogonalEdgeStyle;rounded=0;orthogonalLoop=1;jettySize=auto;html=1;entryX=0;entryY=0.5;entryDx=0;entryDy=0;" edge="1" parent="1" source="MoLYa7cNz7H3YmrfVmoX-30" target="MoLYa7cNz7H3YmrfVmoX-36">
          <mxGeometry relative="1" as="geometry" />
        </mxCell>
        <mxCell id="MoLYa7cNz7H3YmrfVmoX-30" value="리소스 온&amp;nbsp;" style="whiteSpace=wrap;html=1;strokeWidth=2;" vertex="1" parent="1">
          <mxGeometry x="857.5" y="585" width="120" height="30" as="geometry" />
        </mxCell>
        <mxCell id="MoLYa7cNz7H3YmrfVmoX-31" value="구독추가" style="whiteSpace=wrap;html=1;strokeWidth=2;" vertex="1" parent="1">
          <mxGeometry x="700" y="440" width="120" height="30" as="geometry" />
        </mxCell>
        <mxCell id="MoLYa7cNz7H3YmrfVmoX-32" value="&lt;span&gt;고객사정보&lt;/span&gt;&lt;br&gt;&lt;div style=&quot;font-size: 10px&quot;&gt;&lt;span style=&quot;font-size: 10px&quot;&gt;: 기존고객 / 신규고객 선택 라디오박스,&lt;/span&gt;&lt;/div&gt;&lt;div style=&quot;font-size: 10px&quot;&gt;&lt;span style=&quot;font-size: 10px&quot;&gt;&amp;nbsp; 회사명, 대표자명, 사업자번호,&lt;br&gt;&lt;/span&gt;&lt;/div&gt;&lt;div style=&quot;font-size: 10px&quot;&gt;&lt;span style=&quot;font-size: 10px&quot;&gt;&amp;nbsp; 담당자명, 담당자연락처, 담당자이메일,&lt;/span&gt;&lt;/div&gt;&lt;div style=&quot;font-size: 10px&quot;&gt;&lt;span style=&quot;font-size: 10px&quot;&gt;&amp;nbsp; 담당자직책,&amp;nbsp;&lt;/span&gt;&lt;span&gt;국가, 도시, 주, Zipcode, 도로명(빌링주소인지 체크)&lt;/span&gt;&lt;/div&gt;&lt;div style=&quot;font-size: 10px&quot;&gt;&lt;span style=&quot;font-size: 10px&quot;&gt;&amp;nbsp; 도메인 설정, 특별자격, MPA계약동의&lt;/span&gt;&lt;/div&gt;" style="text;html=1;resizable=0;autosize=1;align=left;verticalAlign=middle;points=[];fillColor=none;strokeColor=none;rounded=0;fontSize=10;" vertex="1" parent="1">
          <mxGeometry x="160" y="405" width="300" height="80" as="geometry" />
        </mxCell>
        <mxCell id="MoLYa7cNz7H3YmrfVmoX-35" style="edgeStyle=orthogonalEdgeStyle;rounded=0;orthogonalLoop=1;jettySize=auto;html=1;entryX=0;entryY=0.5;entryDx=0;entryDy=0;" edge="1" parent="1" source="MoLYa7cNz7H3YmrfVmoX-33" target="MoLYa7cNz7H3YmrfVmoX-30">
          <mxGeometry relative="1" as="geometry" />
        </mxCell>
        <mxCell id="MoLYa7cNz7H3YmrfVmoX-43" style="edgeStyle=orthogonalEdgeStyle;rounded=0;orthogonalLoop=1;jettySize=auto;html=1;entryX=0;entryY=0.5;entryDx=0;entryDy=0;" edge="1" parent="1" source="MoLYa7cNz7H3YmrfVmoX-33" target="MoLYa7cNz7H3YmrfVmoX-41">
          <mxGeometry relative="1" as="geometry">
            <Array as="points">
              <mxPoint x="760" y="705" />
            </Array>
          </mxGeometry>
        </mxCell>
        <mxCell id="MoLYa7cNz7H3YmrfVmoX-33" value="Azure Plan?" style="rhombus;whiteSpace=wrap;html=1;" vertex="1" parent="1">
          <mxGeometry x="720" y="560" width="80" height="80" as="geometry" />
        </mxCell>
        <mxCell id="MoLYa7cNz7H3YmrfVmoX-36" value="사용" style="whiteSpace=wrap;html=1;strokeWidth=2;" vertex="1" parent="1">
          <mxGeometry x="1027.5" y="585" width="120" height="30" as="geometry" />
        </mxCell>
        <mxCell id="MoLYa7cNz7H3YmrfVmoX-38" value="YES" style="text;html=1;resizable=0;autosize=1;align=center;verticalAlign=middle;points=[];fillColor=none;strokeColor=none;rounded=0;" vertex="1" parent="1">
          <mxGeometry x="795" y="575" width="40" height="20" as="geometry" />
        </mxCell>
        <mxCell id="MoLYa7cNz7H3YmrfVmoX-39" value="NO" style="text;html=1;resizable=0;autosize=1;align=center;verticalAlign=middle;points=[];fillColor=none;strokeColor=none;rounded=0;" vertex="1" parent="1">
          <mxGeometry x="765" y="640" width="30" height="20" as="geometry" />
        </mxCell>
        <mxCell id="MoLYa7cNz7H3YmrfVmoX-40" value="예산설정" style="whiteSpace=wrap;html=1;strokeWidth=2;" vertex="1" parent="1">
          <mxGeometry x="857.5" y="620" width="120" height="30" as="geometry" />
        </mxCell>
        <mxCell id="MoLYa7cNz7H3YmrfVmoX-47" value="" style="edgeStyle=orthogonalEdgeStyle;rounded=0;orthogonalLoop=1;jettySize=auto;html=1;" edge="1" parent="1" source="MoLYa7cNz7H3YmrfVmoX-41" target="MoLYa7cNz7H3YmrfVmoX-45">
          <mxGeometry relative="1" as="geometry" />
        </mxCell>
        <mxCell id="MoLYa7cNz7H3YmrfVmoX-41" value="리소스 온&amp;nbsp;" style="whiteSpace=wrap;html=1;strokeWidth=2;" vertex="1" parent="1">
          <mxGeometry x="857.5" y="690" width="120" height="30" as="geometry" />
        </mxCell>
        <mxCell id="MoLYa7cNz7H3YmrfVmoX-42" value="예산설정" style="whiteSpace=wrap;html=1;strokeWidth=2;" vertex="1" parent="1">
          <mxGeometry x="857.5" y="760" width="120" height="30" as="geometry" />
        </mxCell>
        <mxCell id="MoLYa7cNz7H3YmrfVmoX-44" value="구독중지" style="whiteSpace=wrap;html=1;strokeWidth=2;" vertex="1" parent="1">
          <mxGeometry x="1027.5" y="725" width="120" height="30" as="geometry" />
        </mxCell>
        <mxCell id="MoLYa7cNz7H3YmrfVmoX-45" value="사용" style="whiteSpace=wrap;html=1;strokeWidth=2;" vertex="1" parent="1">
          <mxGeometry x="1027.5" y="690" width="120" height="30" as="geometry" />
        </mxCell>
        <mxCell id="MoLYa7cNz7H3YmrfVmoX-46" value="구독추가" style="whiteSpace=wrap;html=1;strokeWidth=2;" vertex="1" parent="1">
          <mxGeometry x="1027.5" y="760" width="120" height="30" as="geometry" />
        </mxCell>
        <mxCell id="MoLYa7cNz7H3YmrfVmoX-51" value="" style="edgeStyle=orthogonalEdgeStyle;rounded=0;orthogonalLoop=1;jettySize=auto;html=1;" edge="1" parent="1" source="MoLYa7cNz7H3YmrfVmoX-48" target="MoLYa7cNz7H3YmrfVmoX-49">
          <mxGeometry relative="1" as="geometry" />
        </mxCell>
        <mxCell id="MoLYa7cNz7H3YmrfVmoX-48" value="리소스 온" style="whiteSpace=wrap;html=1;strokeWidth=2;" vertex="1" parent="1">
          <mxGeometry x="700" y="880" width="120" height="30" as="geometry" />
        </mxCell>
        <mxCell id="MoLYa7cNz7H3YmrfVmoX-49" value="사용" style="whiteSpace=wrap;html=1;strokeWidth=2;" vertex="1" parent="1">
          <mxGeometry x="870" y="880" width="120" height="30" as="geometry" />
        </mxCell>
      </root>
    </mxGraphModel>
  </diagram>
</mxfile>
